<svg width="50" height="50" viewBox="0 0 50 50" fill="none" xmlns="http://www.w3.org/2000/svg">
<circle cx="25" cy="25" r="25" fill="#EE303E"/>
<path fill-rule="evenodd" clip-rule="evenodd" d="M11.9081 46.3021V28.1517C11.9081 25.4941 14.0625 23.3398 16.72 23.3398H25.97C26.8069 23.3398 27.6098 23.6722 28.2016 24.2641L28.2017 24.2642L37.1675 33.23L37.1676 33.2301C37.7592 33.8218 38.0918 34.6244 38.0918 35.4616V46.3021C37.1328 46.8927 36.1309 47.4204 35.0918 47.8794V35.4616C35.0918 35.4204 35.0755 35.3807 35.0461 35.3513L35.0461 35.3512L26.0803 26.3854L26.0802 26.3853C26.0511 26.3562 26.0115 26.3398 25.97 26.3398H16.72C15.7193 26.3398 14.9081 27.151 14.9081 28.1517V47.8794C13.869 47.4204 12.8671 46.8927 11.9081 46.3021ZM20.032 38.2436C19.2036 38.2436 18.532 38.9152 18.532 39.7436C18.532 40.572 19.2036 41.2436 20.032 41.2436H29.9679C30.7963 41.2436 31.4679 40.572 31.4679 39.7436C31.4679 38.9152 30.7963 38.2436 29.9679 38.2436H20.032ZM20.032 44.8675C19.2036 44.8675 18.532 45.5391 18.532 46.3675C18.532 47.196 19.2036 47.8675 20.032 47.8675H29.9679C30.7963 47.8675 31.4679 47.196 31.4679 46.3675C31.4679 45.5391 30.7963 44.8675 29.9679 44.8675H20.032Z" fill="white" fill-opacity="0.25"/>
<path d="M16.1843 27.8749C15.9923 27.8749 15.8696 27.7789 15.8163 27.5869C15.7843 27.4482 15.7363 27.0215 15.6723 26.3069C14.8296 26.0615 14.0936 25.9389 13.4643 25.9389C12.899 25.9389 12.3976 26.0295 11.9603 26.2109C11.5016 26.4029 11.1123 26.6749 10.7923 27.0269C10.4616 27.3895 10.2056 27.8162 10.0243 28.3069C9.83231 28.8189 9.73631 29.3895 9.73631 30.0189C9.73631 30.6589 9.83231 31.2349 10.0243 31.7469C10.227 32.2802 10.4723 32.7069 10.7603 33.0269C11.0696 33.3682 11.443 33.6349 11.8803 33.8269C12.2856 34.0082 12.7443 34.0989 13.2563 34.0989C13.555 34.0989 13.8216 34.0829 14.0563 34.0509C14.3016 34.0189 14.5203 33.9709 14.7123 33.9069C14.8936 33.8429 15.0803 33.7522 15.2723 33.6349C15.4323 33.5389 15.6083 33.4002 15.8003 33.2189C15.8323 33.1869 15.891 33.1495 15.9763 33.1069C16.019 33.0855 16.083 33.0749 16.1683 33.0749C16.2963 33.0749 16.3976 33.1175 16.4723 33.2029L17.3203 34.1309C16.851 34.7175 16.275 35.1602 15.5923 35.4589C14.8883 35.7682 14.0616 35.9229 13.1123 35.9229C12.291 35.9229 11.523 35.7735 10.8083 35.4749C10.1043 35.1762 9.51765 34.7709 9.04831 34.2589C8.54698 33.7149 8.17365 33.0909 7.92831 32.3869C7.67231 31.6615 7.54431 30.8722 7.54431 30.0189C7.54431 29.1335 7.68831 28.3335 7.97631 27.6189C8.26431 26.9042 8.66965 26.2855 9.19231 25.7629C9.73631 25.2189 10.3603 24.8082 11.0643 24.5309C11.7896 24.2429 12.595 24.0989 13.4803 24.0989C14.4616 24.0989 15.6723 24.3762 17.1123 24.9309V27.8749H16.1843ZM29.8918 34.5629C30.0945 34.6375 30.1958 34.7762 30.1958 34.9789V35.7949H26.2918V34.9789C26.2918 34.7975 26.3985 34.6589 26.6118 34.5629L26.9318 34.4349L26.2918 32.6909H21.6838L21.0438 34.4349L21.3638 34.5629C21.5771 34.6589 21.6838 34.7975 21.6838 34.9789V35.7949H17.7798V34.9789C17.7798 34.7975 17.8865 34.6589 18.0998 34.5629L18.9798 34.1949L22.8838 24.2269H25.0918L29.0118 34.1949L29.8918 34.5629ZM25.7478 31.1709L24.4198 27.5709C24.2918 27.2189 24.1478 26.7655 23.9878 26.2109L23.8438 26.7069C23.7585 26.9949 23.6625 27.2882 23.5558 27.5869L22.2438 31.1709H25.7478ZM42.4442 30.0029C42.4442 31.1442 42.1935 32.1629 41.6922 33.0589C41.2015 33.9549 40.5082 34.6589 39.6122 35.1709C38.7269 35.6722 37.7189 35.9229 36.5882 35.9229C35.4575 35.9229 34.4442 35.6722 33.5482 35.1709C32.6629 34.6695 31.9695 33.9709 31.4682 33.0749C30.9669 32.1789 30.7162 31.1549 30.7162 30.0029C30.7162 28.8509 30.9669 27.8269 31.4682 26.9309C31.9695 26.0349 32.6629 25.3415 33.5482 24.8509C34.4442 24.3495 35.4575 24.0989 36.5882 24.0989C37.7295 24.0989 38.7429 24.3549 39.6282 24.8669C40.5242 25.3789 41.2175 26.0829 41.7082 26.9789C42.1989 27.8749 42.4442 28.8829 42.4442 30.0029ZM40.2362 30.0029C40.2362 28.7762 39.9162 27.7949 39.2762 27.0589C38.6469 26.3122 37.7509 25.9389 36.5882 25.9389C35.4042 25.9389 34.4922 26.3122 33.8522 27.0589C33.2229 27.8055 32.9082 28.7869 32.9082 30.0029C32.9082 31.2402 33.2282 32.2322 33.8682 32.9789C34.5082 33.7149 35.4149 34.0829 36.5882 34.0829C37.7615 34.0829 38.6629 33.7095 39.2922 32.9629C39.9215 32.2162 40.2362 31.2295 40.2362 30.0029Z" fill="white"/>
<path d="M38.885 15.3761C38.673 14.9519 38.163 14.5008 37.6355 14.5008C37.6077 14.5008 37.5797 14.5021 37.5525 14.5047C36.725 14.5798 35.7236 15.5845 35.6724 16.3906C35.62 17.2232 36.2438 17.5694 36.7451 17.8476C37.1162 18.0535 37.4366 18.2313 37.38 18.5497C37.2967 19.0172 36.5607 19.087 36.1295 19.087C35.9724 19.087 35.8212 19.0777 35.6975 19.0637C35.5629 19.0487 35.4561 19.1767 35.4978 19.3055C35.5235 19.3845 35.5595 19.472 35.6085 19.5613C35.7359 19.7925 35.9809 20.0829 36.4244 20.1516C36.4813 20.1603 36.5477 20.1647 36.6214 20.1647C36.7784 20.1647 37.3315 20.1394 37.8622 19.8138C38.3717 19.5013 38.6723 19.0289 38.755 18.4099C38.8364 17.8038 38.2991 17.4105 37.8252 17.0634C37.4784 16.8093 37.1785 16.5899 37.193 16.3292C37.2013 16.1756 37.3108 16.0091 37.4858 15.8837C37.6763 15.7474 37.9221 15.6784 38.1776 15.6723C38.3926 15.6672 38.6244 15.7129 38.8275 15.8193C38.8992 15.857 38.9858 15.8041 38.9846 15.7233C38.9833 15.6243 38.9498 15.5056 38.885 15.3761" fill="white"/>
<path d="M20.6895 16.9321C20.3724 18.1158 19.9133 18.5773 19.6099 18.5071C19.2244 18.4067 19.0642 17.457 19.254 16.6947C19.4245 16.0026 19.8671 15.2637 20.6186 15.1667C20.733 15.1519 20.8489 15.1507 20.9647 15.1686C21.0279 15.7048 20.6895 16.9321 20.6895 16.9321V16.9321ZM23.0253 18.8835C22.7687 18.9127 22.2444 18.8856 22.1106 18.2256C22.0806 17.8412 22.0975 17.3664 22.1474 16.877C22.1919 16.5492 22.3528 15.8315 22.4386 15.4593C22.4914 15.2708 22.5361 15.1081 22.4721 14.9287C22.3276 14.5122 21.6297 14.0465 20.7128 14.071C19.2943 14.0956 18.0329 15.0024 17.7977 16.7912C17.5815 18.4821 18.2395 19.8054 19.2638 19.7318C19.2734 19.7311 19.282 19.7289 19.2916 19.7282C19.9705 19.7204 20.545 19.2761 20.8574 18.7232C20.8881 18.8598 21.0337 19.4214 21.4025 19.6314C21.7387 19.823 22.5954 19.9278 23.0965 19.0025C23.1276 18.9452 23.0865 18.8768 23.0253 18.8835" fill="white"/>
<path d="M27.9431 17.1893C27.9185 17.1923 27.8959 17.1935 27.875 17.1939C27.8785 16.9028 27.9079 16.6403 27.9397 16.474C28.0264 16.0168 28.3047 15.3647 28.9152 15.4222C29.5258 15.48 29.0186 17.1049 27.9431 17.1893ZM29.4418 14.3164C28.1191 14.1188 27.2856 14.7779 26.8075 15.6262C26.4127 16.3267 26.1058 17.9799 26.9174 19.1324C27.7287 20.2846 29.0196 20.0252 29.4945 19.8187C29.9483 19.6213 30.4543 19.1353 30.4625 18.3672C30.4632 18.3207 30.3981 18.2898 30.3559 18.323C30.0356 18.5744 29.2161 19.259 28.4084 18.7819C28.0866 18.5917 27.9449 18.1439 27.896 17.6795C28.6062 18.0005 29.4759 17.8443 29.9919 17.3072C30.3344 16.9582 30.4242 16.5192 30.4664 16.3681C30.7752 15.2609 30.2669 14.4397 29.4418 14.3164" fill="white"/>
<path d="M24.3396 16.6322C24.1769 15.8483 24.2589 14.5512 24.5814 13.4234C24.7833 12.717 25.1992 12.4432 25.5084 12.5371C26.5573 12.8562 24.7545 16.0127 24.3934 16.5417L24.3396 16.6322ZM26.0097 18.5209C26.0097 18.5209 25.2382 19.4425 24.7444 18.3051C24.7448 18.2868 24.6987 18.1936 24.6956 18.1695C24.6956 18.1695 24.7064 18.1494 24.7261 18.1124C24.9979 17.7038 25.4155 17.0113 26.0458 15.8373C27.4485 13.2247 27.2532 12.088 26.4598 11.543C26.2387 11.3833 25.9452 11.2631 25.5756 11.2631C23.3186 11.2631 22.9292 14.1886 22.8904 15.0391C22.7308 18.559 23.8352 20.0726 24.7469 20.0948C25.9148 20.1235 26.1294 18.9478 26.1651 18.7089C26.1999 18.4763 26.1294 18.3766 26.0097 18.5209" fill="white"/>
<path d="M13.9708 12.7453C15.0337 12.4149 16.8553 12.1595 17.1078 13.0806C17.3631 14.011 16.1142 14.6438 15.1605 15.1787C14.7099 15.4313 14.2401 15.6625 13.8694 15.8364L13.9708 12.7453ZM15.0731 16.56C15.0731 16.56 16.1912 16.022 16.9069 15.5876C17.6586 15.1313 18.7586 14.3493 18.7401 13.1822C18.7266 12.3302 18.1826 11.2634 16.302 11.1655C14.8245 11.0887 12.7012 11.7324 11.8579 12.0124C11.5921 12.1006 11.3688 12.2874 11.2411 12.5366C10.9771 13.0522 10.9839 13.4865 11.015 13.7113C11.0264 13.7942 11.1154 13.842 11.1914 13.8065C11.4848 13.6691 11.9956 13.4615 12.5238 13.2599L12.1804 20.8664C12.1759 20.9687 12.2838 21.0407 12.3751 20.995C12.9219 20.7223 13.3639 20.2993 13.5845 20.0644C13.6827 19.96 13.7392 19.8231 13.7434 19.6788L13.8284 17.0902C15.2001 18.5221 16.6788 20.6723 17.0365 21.2767C17.0923 21.371 17.2295 21.3689 17.2787 21.2727C17.4427 20.9524 17.6379 20.4239 17.7329 19.9601C17.8541 19.3714 17.3972 18.894 17.1286 18.6211C16.8597 18.3482 15.0731 16.56 15.0731 16.56Z" fill="white"/>
<path d="M35.3485 14.0432C35.4416 14.0901 35.5182 14.1464 35.5208 14.2797C35.521 14.2882 35.5208 14.2966 35.5206 14.3049C35.5197 14.3227 35.5185 14.3409 35.5151 14.3611C35.5072 14.4092 35.495 14.4513 35.4796 14.4896C35.478 14.4932 35.4766 14.4968 35.475 14.5002C35.4696 14.5133 35.4636 14.5254 35.4575 14.5374C35.4543 14.5436 35.4513 14.5497 35.4482 14.5556C35.4396 14.5713 35.4304 14.5865 35.4207 14.6009C35.4205 14.6011 35.4205 14.6014 35.4203 14.6015C35.3771 14.6659 35.3256 14.7187 35.2759 14.7722L35.2767 14.7726C35.2723 14.7769 35.268 14.7813 35.2637 14.7856C35.2271 14.8221 35.2551 14.8899 35.3029 14.8785C35.8303 14.7532 36.2135 14.4037 36.3707 13.8917C36.5729 13.2329 36.1984 12.7119 35.6849 12.6922C35.264 12.6761 34.8911 13.0378 34.9726 13.543C35.024 13.863 35.2151 13.9916 35.3485 14.0432" fill="white"/>
<path d="M34.5398 14.8312C34.5294 14.8183 34.5216 14.8064 34.5149 14.7986C34.3944 14.6618 34.3201 14.6279 34.2223 14.7218C34.1127 14.8272 33.9482 16.4107 33.6861 17.3377C33.4863 18.0441 33.0504 18.5271 32.6048 18.5079C32.1592 18.4886 32.3209 17.1707 32.3385 15.8655L32.3387 15.8653C32.3424 15.7541 32.3416 15.6618 32.3342 15.5965C32.327 15.534 32.3075 15.4706 32.2777 15.4067C32.2704 15.3958 32.2633 15.3841 32.2567 15.371C32.2163 15.2903 32.1602 15.2106 32.0937 15.1335C32.0881 15.127 32.0821 15.1204 32.0764 15.1139C32.0712 15.1079 32.0658 15.1018 32.0606 15.0959C32.0548 15.0897 32.0491 15.0838 32.0434 15.0777C32.0364 15.0703 32.0294 15.0627 32.0223 15.0552C32.0203 15.0532 32.018 15.0511 32.0159 15.0487C31.9028 14.9328 31.7701 14.8241 31.638 14.7274C31.1178 14.3781 31.0122 14.4138 30.9359 14.4521C30.8651 14.4874 30.8605 14.5815 30.8958 14.7464C30.9174 14.8473 31.0914 15.3326 31.0796 16.206C31.0792 16.2455 31.0778 16.2825 31.0766 16.3181C31.0766 16.3321 31.0766 16.3458 31.0766 16.36C31.0679 17.7851 30.7798 19.9814 32.176 20.1315C32.783 20.1844 33.4377 19.3946 33.4377 19.3946C33.4377 19.3946 33.4047 19.5158 33.3558 19.6708C32.5293 22.4069 31.9174 22.7722 31.5713 23.0456C31.5118 23.0926 31.533 23.1878 31.6068 23.2058C32.7419 23.4808 33.4412 22.8313 33.7896 22.1952C34.7221 20.4935 35.5051 16.2739 35.1244 15.6663C34.9124 15.3277 34.7087 15.0328 34.5398 14.8312" fill="white"/>
<path d="M38.8065 19.8576H38.8247C38.8455 19.8576 38.8627 19.8506 38.8627 19.8335C38.8627 19.8185 38.8517 19.8085 38.8276 19.8085C38.8175 19.8085 38.8105 19.8096 38.8065 19.8106V19.8576ZM38.8056 19.9506H38.7674V19.7864C38.7825 19.7834 38.8036 19.7815 38.8306 19.7815C38.8616 19.7815 38.8757 19.7864 38.8877 19.7935C38.8968 19.8005 38.9038 19.8136 38.9038 19.8295C38.9038 19.8475 38.8897 19.8616 38.8697 19.8676V19.8696C38.8856 19.8756 38.8947 19.8876 38.8998 19.9097C38.9048 19.9347 38.9078 19.9447 38.9117 19.9506H38.8707C38.8657 19.9447 38.8627 19.9297 38.8576 19.9107C38.8547 19.8925 38.8446 19.8846 38.8236 19.8846H38.8056V19.9506ZM38.7044 19.8646C38.7044 19.9377 38.7584 19.9958 38.8326 19.9958C38.9048 19.9958 38.9579 19.9377 38.9579 19.8656C38.9579 19.7925 38.9048 19.7335 38.8317 19.7335C38.7584 19.7335 38.7044 19.7925 38.7044 19.8646ZM39 19.8646C39 19.9577 38.9268 20.0309 38.8317 20.0309C38.7374 20.0309 38.6622 19.9577 38.6622 19.8646C38.6622 19.7734 38.7374 19.7002 38.8317 19.7002C38.9268 19.7002 39 19.7734 39 19.8646Z" fill="white"/>
</svg>
