<svg width="93" height="40" viewBox="0 0 93 40" fill="none" xmlns="http://www.w3.org/2000/svg">
<path d="M92.0946 13.927C91.3943 12.5261 89.71 11.0363 87.968 11.0363C87.8761 11.0363 87.7836 11.0406 87.6937 11.0491C84.961 11.2971 81.6536 14.6154 81.4844 17.2775C81.3115 20.0275 83.3717 21.1709 85.0273 22.0897C86.253 22.7696 87.3112 23.3566 87.1241 24.4082C86.8492 25.9524 84.4182 26.1828 82.9942 26.1828C82.4754 26.1828 81.9761 26.1522 81.5674 26.106C81.1228 26.0565 80.7702 26.479 80.9078 26.9047C80.9927 27.1654 81.1117 27.4546 81.2736 27.7494C81.6943 28.5129 82.5035 29.4718 83.9681 29.6988C84.1559 29.7275 84.3753 29.7422 84.6189 29.7422C85.1374 29.7422 86.9641 29.6585 88.7165 28.5831C90.3993 27.551 91.3921 25.9908 91.6654 23.9468C91.934 21.9449 90.1597 20.646 88.5944 19.4996C87.4491 18.6603 86.4588 17.9358 86.5064 17.075C86.5339 16.5676 86.8956 16.0177 87.4734 15.6035C88.1027 15.1533 88.9144 14.9256 89.7583 14.9053C90.4684 14.8885 91.234 15.0395 91.9047 15.3908C92.1417 15.5154 92.4276 15.3407 92.4235 15.0737C92.4194 14.7468 92.3086 14.3548 92.0946 13.927Z" fill="#EE303E"/>
<path d="M32.0003 19.0659C30.953 22.9753 29.4366 24.4994 28.4348 24.2675C27.1615 23.9359 26.6326 20.7994 27.2594 18.282C27.8223 15.9962 29.2841 13.5559 31.7661 13.2355C32.1439 13.1867 32.5267 13.1825 32.9092 13.2418C33.1178 15.0126 32.0003 19.0659 32.0003 19.0659ZM39.7146 25.5109C38.8672 25.6074 37.1356 25.5177 36.6937 23.3379C36.5947 22.0685 36.6502 20.5004 36.8153 18.8841C36.962 17.8013 37.4935 15.4311 37.7769 14.202C37.9514 13.5793 38.0988 13.0421 37.8876 12.4495C37.4101 11.0738 35.1054 9.53595 32.0773 9.61691C27.3924 9.6981 23.2264 12.6928 22.4496 18.6005C21.7357 24.185 23.9086 28.5556 27.2916 28.3123C27.3233 28.3102 27.3518 28.3028 27.3833 28.3006C29.6256 28.2749 31.523 26.8074 32.5548 24.9815C32.6561 25.4327 33.137 27.2872 34.3549 27.981C35.4655 28.6137 38.2947 28.9599 39.9497 25.9037C40.0523 25.7146 39.9166 25.4888 39.7146 25.5109Z" fill="#EE303E"/>
<path d="M55.9568 19.9154C55.8757 19.9253 55.8009 19.9294 55.7321 19.9308C55.7435 18.9693 55.8407 18.1023 55.9458 17.553C56.232 16.043 57.151 13.8894 59.1673 14.0795C61.184 14.2701 59.5088 19.6367 55.9568 19.9154ZM60.9065 10.4273C56.5381 9.77464 53.7852 11.9513 52.2063 14.7531C50.9026 17.0667 49.8889 22.5266 52.5692 26.3327C55.2489 30.138 59.5123 29.2815 61.0804 28.5995C62.5792 27.9474 64.2506 26.3426 64.2777 23.8057C64.2799 23.652 64.065 23.5501 63.9255 23.6597C62.8676 24.4901 60.1611 26.751 57.4937 25.1752C56.4308 24.5471 55.9628 23.0681 55.8012 21.5344C58.1467 22.5946 61.0192 22.0787 62.7234 20.3048C63.8545 19.1523 64.1512 17.7023 64.2903 17.2035C65.3103 13.5465 63.6317 10.8345 60.9065 10.4273Z" fill="#EE303E"/>
<path d="M44.0556 18.0757C43.5182 15.4867 43.7893 11.2029 44.8541 7.47791C45.5209 5.14511 46.8947 4.24081 47.9156 4.55087C51.3799 5.60466 45.4259 16.0297 44.2333 17.7765L44.0556 18.0757ZM49.5716 24.3134C49.5716 24.3134 47.0235 27.3569 45.3925 23.6006C45.3937 23.54 45.2416 23.2322 45.2315 23.1527C45.2315 23.1527 45.2672 23.0862 45.3322 22.9642C46.2297 21.6148 47.6089 19.3277 49.6905 15.4504C54.3231 6.82184 53.6784 3.06779 51.058 1.26772C50.3277 0.740353 49.3582 0.343245 48.1378 0.343245C40.6835 0.343245 39.3975 10.0052 39.2694 12.8142C38.7423 24.439 42.3896 29.438 45.4007 29.5113C49.2579 29.6062 49.9667 25.7232 50.0847 24.9343C50.1996 24.1659 49.9667 23.8366 49.5716 24.3134Z" fill="#EE303E"/>
<path d="M9.81154 5.23841C13.322 4.14739 19.338 3.30366 20.1721 6.34582C21.0152 9.41862 16.8904 11.5085 13.7407 13.2752C12.2524 14.1093 10.701 14.8731 9.47669 15.4475L9.81154 5.23841ZM13.4521 17.837C13.4521 17.837 17.1449 16.0602 19.5086 14.6255C21.991 13.1186 25.6238 10.5361 25.5629 6.68142C25.5183 3.86762 23.7215 0.344444 17.5105 0.0208282C12.631 -0.232761 5.61832 1.89313 2.83348 2.81792C1.95561 3.10936 1.21792 3.72631 0.796303 4.54923C-0.0755217 6.25215 -0.053085 7.68633 0.049606 8.42881C0.087329 8.70266 0.380977 8.86049 0.632097 8.74319C1.60119 8.2894 3.28811 7.60401 5.03252 6.93817L3.89847 32.0597C3.8837 32.3974 4.24007 32.6353 4.54162 32.4845C6.3474 31.5837 7.80727 30.1867 8.53572 29.4111C8.85993 29.0661 9.0467 28.6139 9.06065 28.1373L9.34121 19.5882C13.8713 24.3172 18.755 31.4185 19.9365 33.4146C20.1208 33.7263 20.574 33.7193 20.7363 33.4014C21.2781 32.3438 21.9226 30.5982 22.2364 29.0664C22.6366 27.1222 21.1279 25.5454 20.2405 24.6441C19.3527 23.7428 13.4521 17.837 13.4521 17.837Z" fill="#EE303E"/>
<path d="M80.4142 9.52503C80.7215 9.68005 80.9747 9.86596 80.9832 10.3061C80.9838 10.3342 80.9832 10.362 80.9825 10.3895C80.9797 10.4481 80.9756 10.5082 80.9642 10.575C80.9384 10.7338 80.898 10.8728 80.8472 10.9994C80.8418 11.0113 80.8371 11.023 80.832 11.0342C80.814 11.0776 80.7944 11.1176 80.7743 11.1572C80.7635 11.1775 80.7537 11.1977 80.7433 11.2173C80.7149 11.269 80.6846 11.3193 80.6528 11.3668C80.6518 11.3677 80.6518 11.3685 80.6512 11.369C80.5085 11.5815 80.3384 11.7561 80.1743 11.9328L80.1772 11.9341C80.1626 11.9482 80.1484 11.9629 80.1342 11.977C80.0134 12.0975 80.1058 12.3214 80.2636 12.2838C82.0054 11.8699 83.2709 10.7155 83.7901 9.02456C84.4578 6.84899 83.221 5.12809 81.525 5.06312C80.1352 5.00981 78.9034 6.2046 79.1726 7.87314C79.3424 8.92994 79.9736 9.35451 80.4142 9.52503Z" fill="#EE303E"/>
<path d="M77.7435 12.1275C77.7091 12.0848 77.6833 12.0456 77.6612 12.0197C77.2632 11.5679 77.018 11.4561 76.6948 11.7663C76.3329 12.1142 75.7897 17.3442 74.9241 20.4055C74.2641 22.7385 72.8244 24.3337 71.3528 24.2702C69.8812 24.2065 70.4152 19.8541 70.4732 15.5435L70.4742 15.5428C70.4862 15.1755 70.4837 14.8708 70.4594 14.6549C70.4354 14.4487 70.371 14.2391 70.2725 14.028C70.2485 13.9923 70.2252 13.9535 70.2034 13.9101C70.0699 13.6439 69.8847 13.3805 69.665 13.1259C69.6464 13.1045 69.6265 13.0828 69.6079 13.0612C69.5905 13.0413 69.5729 13.0212 69.5555 13.0016C69.5366 12.9813 69.5176 12.9617 69.4987 12.9416C69.4757 12.917 69.4526 12.8919 69.4293 12.8674C69.4226 12.8606 69.4148 12.8536 69.4081 12.8457C69.0345 12.463 68.5961 12.1039 68.16 11.7845C66.4419 10.6309 66.0931 10.7488 65.841 10.8755C65.6074 10.9919 65.592 11.3029 65.7088 11.8475C65.7801 12.1805 66.3548 13.7835 66.3156 16.668C66.3144 16.7985 66.3096 16.9207 66.3058 17.0383C66.3058 17.0845 66.3058 17.1298 66.3058 17.1765C66.2771 21.8833 65.3256 29.137 69.9367 29.6326C71.9414 29.8072 74.1038 27.1987 74.1038 27.1987C74.1038 27.1987 73.9946 27.5991 73.833 28.111C71.1035 37.1472 69.0827 38.3537 67.9397 39.2568C67.7431 39.4119 67.8131 39.7264 68.0568 39.7858C71.8057 40.6942 74.1152 38.549 75.2658 36.4483C78.3457 30.828 80.9317 16.8923 79.6743 14.8855C78.974 13.7673 78.3015 12.7932 77.7435 12.1275Z" fill="#EE303E"/>
<path d="M91.835 28.7279H91.895C91.9638 28.7279 92.0206 28.7049 92.0206 28.6485C92.0206 28.5988 91.9843 28.5659 91.9048 28.5659C91.8713 28.5659 91.8483 28.5694 91.835 28.5727V28.7279ZM91.8319 29.0353H91.706V28.493C91.7558 28.4831 91.8253 28.4766 91.9146 28.4766C92.0168 28.4766 92.0635 28.493 92.1033 28.5163C92.1333 28.5394 92.1563 28.5826 92.1563 28.6353C92.1563 28.6947 92.1096 28.7413 92.0437 28.7612V28.7677C92.0964 28.7875 92.1263 28.8271 92.1431 28.9002C92.1595 28.9826 92.1696 29.0156 92.1825 29.0353H92.0471C92.0304 29.0156 92.0206 28.9661 92.0039 28.9035C91.9941 28.8434 91.961 28.8173 91.8915 28.8173H91.8319V29.0353ZM91.4977 28.7511C91.4977 28.9926 91.676 29.1844 91.9212 29.1844C92.1595 29.1844 92.3349 28.9926 92.3349 28.7544C92.3349 28.5129 92.1595 28.318 91.918 28.318C91.676 28.318 91.4977 28.5129 91.4977 28.7511ZM92.4741 28.7511C92.4741 29.0587 92.2324 29.3002 91.918 29.3002C91.6069 29.3002 91.3585 29.0587 91.3585 28.7511C91.3585 28.4501 91.6069 28.2084 91.918 28.2084C92.2324 28.2084 92.4741 28.4501 92.4741 28.7511Z" fill="#EE303E"/>
</svg>
